<svg width="24" height="24" viewBox="0 0 24 24" fill="none" xmlns="http://www.w3.org/2000/svg">
<path d="M12 21C13.78 21 15.5201 20.4722 17.0001 19.4832C18.4802 18.4943 19.6337 17.0887 20.3149 15.4442C20.9961 13.7996 21.1743 11.99 20.8271 10.2442C20.4798 8.49836 19.6226 6.89472 18.364 5.63604C17.1053 4.37737 15.5016 3.5202 13.7558 3.17294C12.01 2.82567 10.2004 3.0039 8.55585 3.68509C6.91131 4.36628 5.50571 5.51983 4.51677 6.99987C3.52784 8.47991 3 10.22 3 12C3 13.3622 3.3017 14.6523 3.84373 15.8098C3.94078 16.017 3.97491 16.2493 3.92891 16.4734L3.30483 19.5146C3.16052 20.2178 3.78222 20.8395 4.48544 20.6952L7.52673 20.0711C7.75078 20.0251 7.98295 20.0592 8.19011 20.1561C9.34705 20.6975 10.6387 21 12 21Z" stroke="white" stroke-width="2" stroke-linecap="round" stroke-linejoin="round"/>
</svg>
