<svg width="24" height="24" viewBox="0 0 24 24" fill="none" xmlns="http://www.w3.org/2000/svg">
<path d="M12 19V22M5 10V12C5 13.8565 5.7375 15.637 7.05025 16.9497C8.36301 18.2625 10.1435 19 12 19C13.8565 19 15.637 18.2625 16.9497 16.9497C18.2625 15.637 19 13.8565 19 12V10" stroke="white" stroke-width="2" stroke-linecap="round" stroke-linejoin="round"/>
<path d="M15 5C15 3.34315 13.6569 2 12 2C10.3431 2 9 3.34315 9 5V12C9 13.6569 10.3431 15 12 15C13.6569 15 15 13.6569 15 12V5Z" stroke="white" stroke-width="2" stroke-linecap="round" stroke-linejoin="round"/>
</svg>
