<svg width="24" height="24" viewBox="0 0 24 24" fill="none" xmlns="http://www.w3.org/2000/svg">
<g clip-path="url(#clip0_2039_144)">
<path d="M7.90857 13.7029C8.46601 13.1307 9.13243 12.6758 9.86849 12.3652C10.6046 12.0547 11.3954 11.8947 12.1943 11.8947C12.9932 11.8947 13.784 12.0547 14.5201 12.3652C15.2561 12.6758 15.9226 13.1307 16.48 13.7029M4.18857 10.8058C5.23208 9.7562 6.47279 8.92326 7.83936 8.35488C9.20592 7.7865 10.6714 7.4939 12.1514 7.4939C13.6315 7.4939 15.0969 7.7865 16.4635 8.35488C17.8301 8.92326 19.0708 9.7562 20.1143 10.8058M12.1429 20.9887C12.4378 20.9887 12.7298 20.9306 13.0023 20.8177C13.2747 20.7048 13.5223 20.5394 13.7308 20.3309C13.9393 20.1224 14.1048 19.8748 14.2176 19.6023C14.3305 19.3299 14.3886 19.0378 14.3886 18.7429C14.3886 18.448 14.3305 18.156 14.2176 17.8835C14.1048 17.6111 13.9393 17.3635 13.7308 17.155C13.5223 16.9464 13.2747 16.781 13.0023 16.6682C12.7298 16.5553 12.4378 16.4972 12.1429 16.4972C11.5473 16.4972 10.976 16.7338 10.5549 17.155C10.1337 17.5761 9.89714 18.1473 9.89714 18.7429C9.89714 19.3385 10.1337 19.9097 10.5549 20.3309C10.976 20.7521 11.5473 20.9887 12.1429 20.9887Z" stroke="white" stroke-width="2" stroke-linecap="round" stroke-linejoin="round"/>
<path d="M1 7.61722C2.46303 6.15343 4.20013 4.99225 6.11206 4.20001C8.02399 3.40777 10.0733 3 12.1429 3C14.2124 3 16.2617 3.40777 18.1737 4.20001C20.0856 4.99225 21.8227 6.15343 23.2857 7.61722" stroke="white" stroke-width="2" stroke-linecap="round" stroke-linejoin="round"/>
</g>
<defs>
<clipPath id="clip0_2039_144">
<rect width="24" height="24" fill="white"/>
</clipPath>
</defs>
</svg>
