<svg width="24" height="24" viewBox="0 0 24 24" fill="none" xmlns="http://www.w3.org/2000/svg">
<path d="M20 15.3852V10.6429C20 6.56749 20 4.53169 18.8284 3.26537C17.6569 2 15.7707 2 12 2C8.22933 2 6.34311 2 5.17156 3.26537C4 4.53074 4 6.56939 4 10.6429V15.3861C4 18.3273 4 19.7988 4.65244 20.441C4.96356 20.7478 5.35644 20.9407 5.77511 20.992C6.65244 21.0993 7.67733 20.1303 9.72622 18.1933C10.6329 17.3374 11.0853 16.909 11.6089 16.7969C11.8667 16.7399 12.1333 16.7399 12.3911 16.7969C12.9156 16.909 13.368 17.3374 14.2738 18.1933C16.3227 20.1303 17.3476 21.0993 18.2249 20.991C18.6427 20.9407 19.0364 20.7478 19.3476 20.441C20 19.7988 20 18.3273 20 15.3852Z" stroke="white" stroke-width="2"/>
<path d="M15 6H9" stroke="white" stroke-width="2" stroke-linecap="round"/>
</svg>
