<svg width="24" height="24" viewBox="0 0 24 24" fill="none" xmlns="http://www.w3.org/2000/svg">
<path d="M17 2H7C4.23858 2 2 4.23858 2 7V13.8444C2 16.4676 4.02724 18.6448 6.64376 18.8317L8.54496 18.9675C8.83399 18.9881 9.09986 19.1331 9.27372 19.365L10.4 20.8667C11.2 21.9333 12.8 21.9333 13.6 20.8667L14.7 19.4C14.8889 19.1482 15.1852 19 15.5 19H17C19.7614 19 22 16.7614 22 14V7C22 4.23858 19.7614 2 17 2Z" stroke="white" stroke-width="2"/>
<circle cx="7" cy="10.5" r="1.5" fill="white"/>
<circle cx="12" cy="10.5" r="1.5" fill="white"/>
<circle cx="17" cy="10.5" r="1.5" fill="white"/>
</svg>
