<svg width="24" height="24" viewBox="0 0 24 24" fill="none" xmlns="http://www.w3.org/2000/svg">
<path d="M7.97 9.88601H16.03M7.97 14.114H13.718M12 21.25C14.0094 21.2496 15.964 20.5948 17.5682 19.3848C19.1724 18.1748 20.339 16.4753 20.8915 14.5434C21.444 12.6115 21.3524 10.5521 20.6305 8.6769C19.9086 6.80167 18.5957 5.21249 16.8904 4.14971C15.1851 3.08694 13.18 2.60837 11.1786 2.78638C9.17707 2.96439 7.28798 3.7893 5.79698 5.13636C4.30598 6.48341 3.29417 8.27934 2.91457 10.2525C2.53497 12.2258 2.80822 14.2689 3.693 16.073C3.801 16.293 3.837 16.541 3.782 16.779L2.966 20.315C2.943 20.4142 2.94564 20.5177 2.97367 20.6156C3.0017 20.7136 3.05421 20.8027 3.12624 20.8748C3.19827 20.9468 3.28745 20.9993 3.38538 21.0273C3.48331 21.0554 3.58677 21.058 3.686 21.035L7.221 20.218C7.45967 20.1657 7.70907 20.1975 7.927 20.308C9.19439 20.9304 10.588 21.2527 12 21.25Z" stroke="white" stroke-width="2" stroke-linecap="round" stroke-linejoin="round"/>
</svg>
