<svg width="24" height="24" viewBox="0 0 24 24" fill="none" xmlns="http://www.w3.org/2000/svg">
<path d="M2.00005 12C2.00005 8.229 2.00005 6.343 3.17205 5.172C4.34405 4.001 6.22905 4 10 4H14C17.771 4 19.657 4 20.828 5.172C21.999 6.344 22 8.229 22 12V14C22 17.771 22 19.657 20.828 20.828C19.656 21.999 17.771 22 14 22H10C6.22905 22 4.34305 22 3.17205 20.828C2.00105 19.656 2.00005 17.771 2.00005 14V12Z" stroke="white" stroke-width="2"/>
<path d="M7.00007 4V2.5M17.0001 4V2.5M2.50007 9H21.5001" stroke="white" stroke-width="2" stroke-linecap="round"/>
<path d="M18 17C18 17.2652 17.8947 17.5196 17.7071 17.7071C17.5196 17.8946 17.2652 18 17 18C16.7348 18 16.4805 17.8946 16.2929 17.7071C16.1054 17.5196 16 17.2652 16 17C16 16.7348 16.1054 16.4804 16.2929 16.2929C16.4805 16.1054 16.7348 16 17 16C17.2652 16 17.5196 16.1054 17.7071 16.2929C17.8947 16.4804 18 16.7348 18 17ZM18 13C18 13.2652 17.8947 13.5196 17.7071 13.7071C17.5196 13.8946 17.2652 14 17 14C16.7348 14 16.4805 13.8946 16.2929 13.7071C16.1054 13.5196 16 13.2652 16 13C16 12.7348 16.1054 12.4804 16.2929 12.2929C16.4805 12.1054 16.7348 12 17 12C17.2652 12 17.5196 12.1054 17.7071 12.2929C17.8947 12.4804 18 12.7348 18 13ZM13 17C13 17.2652 12.8947 17.5196 12.7071 17.7071C12.5196 17.8946 12.2652 18 12 18C11.7348 18 11.4805 17.8946 11.2929 17.7071C11.1054 17.5196 11 17.2652 11 17C11 16.7348 11.1054 16.4804 11.2929 16.2929C11.4805 16.1054 11.7348 16 12 16C12.2652 16 12.5196 16.1054 12.7071 16.2929C12.8947 16.4804 13 16.7348 13 17ZM13 13C13 13.2652 12.8947 13.5196 12.7071 13.7071C12.5196 13.8946 12.2652 14 12 14C11.7348 14 11.4805 13.8946 11.2929 13.7071C11.1054 13.5196 11 13.2652 11 13C11 12.7348 11.1054 12.4804 11.2929 12.2929C11.4805 12.1054 11.7348 12 12 12C12.2652 12 12.5196 12.1054 12.7071 12.2929C12.8947 12.4804 13 12.7348 13 13ZM8.00002 17C8.00002 17.2652 7.89467 17.5196 7.70713 17.7071C7.51959 17.8946 7.26524 18 7.00002 18C6.73481 18 6.48045 17.8946 6.29292 17.7071C6.10538 17.5196 6.00002 17.2652 6.00002 17C6.00002 16.7348 6.10538 16.4804 6.29292 16.2929C6.48045 16.1054 6.73481 16 7.00002 16C7.26524 16 7.51959 16.1054 7.70713 16.2929C7.89467 16.4804 8.00002 16.7348 8.00002 17ZM8.00002 13C8.00002 13.2652 7.89467 13.5196 7.70713 13.7071C7.51959 13.8946 7.26524 14 7.00002 14C6.73481 14 6.48045 13.8946 6.29292 13.7071C6.10538 13.5196 6.00002 13.2652 6.00002 13C6.00002 12.7348 6.10538 12.4804 6.29292 12.2929C6.48045 12.1054 6.73481 12 7.00002 12C7.26524 12 7.51959 12.1054 7.70713 12.2929C7.89467 12.4804 8.00002 12.7348 8.00002 13Z" fill="white"/>
</svg>
