<svg width="24" height="24" viewBox="0 0 24 24" fill="none" xmlns="http://www.w3.org/2000/svg">
<path d="M19 7H5C4.73478 7 4.48043 7.10536 4.29289 7.29289C4.10536 7.48043 4 7.73478 4 8L3 21C3 21.2652 3.10536 21.5196 3.29289 21.7071C3.48043 21.8946 3.73478 22 4 22H20C20.2652 22 20.5196 21.8946 20.7071 21.7071C20.8946 21.5196 21 21.2652 21 21L20 8C20 7.73478 19.8946 7.48043 19.7071 7.29289C19.5196 7.10536 19.2652 7 19 7Z" stroke="white" stroke-width="2" stroke-linecap="round" stroke-linejoin="round"/>
<path d="M8 7V4.5C8 4.1717 8.10346 3.84661 8.30448 3.54329C8.5055 3.23998 8.80014 2.96438 9.17157 2.73223C9.54301 2.50009 9.98396 2.31594 10.4693 2.1903C10.9546 2.06466 11.4747 2 12 2C12.5253 2 13.0454 2.06466 13.5307 2.1903C14.016 2.31594 14.457 2.50009 14.8284 2.73223C15.1999 2.96438 15.4945 3.23998 15.6955 3.54329C15.8965 3.84661 16 4.1717 16 4.5V7" stroke="white" stroke-width="2" stroke-linecap="round" stroke-linejoin="round"/>
<path d="M8 10V12.5C8 12.8283 8.10346 13.1534 8.30448 13.4567C8.5055 13.76 8.80014 14.0356 9.17157 14.2678C9.54301 14.4999 9.98396 14.6841 10.4693 14.8097C10.9546 14.9353 11.4747 15 12 15C12.5253 15 13.0454 14.9353 13.5307 14.8097C14.016 14.6841 14.457 14.4999 14.8284 14.2678C15.1999 14.0356 15.4945 13.76 15.6955 13.4567C15.8965 13.1534 16 12.8283 16 12.5V10" stroke="white" stroke-width="2" stroke-linecap="round" stroke-linejoin="round"/>
</svg>
